<svg width="36" height="37" viewBox="0 0 36 37" fill="none" xmlns="http://www.w3.org/2000/svg">
<g clip-path="url(#clip0_29_32)">
<path d="M7.05829 0.00927734C3.18047 0.00927734 0.00671387 3.27112 0.00671387 7.25673V29.7468C0.00671387 33.7324 3.1804 36.9931 7.05829 36.9931H28.9406C32.8184 36.9931 35.991 33.7324 35.991 29.7468V7.25673C35.991 3.2712 32.8184 0.00927734 28.9406 0.00927734H7.05829ZM8.83186 6.11235C10.6912 6.11235 11.8365 7.36688 11.8718 9.01593C11.8718 10.6286 10.6911 11.9184 8.7959 11.9184H8.76101C6.93707 11.9184 5.75818 10.6286 5.75818 9.01593C5.75818 7.36691 6.97275 6.11235 8.83183 6.11235H8.83186ZM24.8547 13.8198C28.4306 13.8198 31.1112 16.2219 31.1112 21.384V31.0206H25.6769V22.0301C25.6769 19.7708 24.8904 18.2295 22.9237 18.2295C21.4224 18.2295 20.5275 19.2684 20.1346 20.272C19.9911 20.631 19.9558 21.1325 19.9558 21.6347V31.0206H14.5215C14.5215 31.0206 14.5928 15.7909 14.5215 14.2139H19.9569V16.5939C20.6791 15.4488 21.9708 13.8198 24.8547 13.8198V13.8198ZM6.07873 14.2152H11.513V31.0206H6.07873V14.2152Z" fill="white"/>
</g>
<defs>
<clipPath id="clip0_29_32">
<rect width="36" height="37" fill="white"/>
</clipPath>
</defs>
</svg>
